<?xml version="1.0" encoding="iso-8859-1"?>
<!-- Uploaded to: SVG Repo, www.svgrepo.com, Generator: SVG Repo Mixer Tools -->
<svg version="1.1" id="Layer_1" xmlns="http://www.w3.org/2000/svg" xmlns:xlink="http://www.w3.org/1999/xlink" 
	 viewBox="0 0 512 512" xml:space="preserve">
<rect x="146.286" y="388.571" style="fill:#C7CFE2;" width="36.571" height="82.286"/>
<rect x="146.286" y="388.571" style="fill:#AFB9D2;" width="36.571" height="27.429"/>
<rect x="329.143" y="388.571" style="fill:#C7CFE2;" width="36.571" height="82.286"/>
<rect x="329.143" y="388.571" style="fill:#AFB9D2;" width="36.571" height="27.429"/>
<path style="fill:#E4EAF8;" d="M493.714,397.714H18.286C8.186,397.714,0,389.528,0,379.429V50.286C0,40.186,8.186,32,18.286,32
	h475.429C503.814,32,512,40.186,512,50.286v329.143C512,389.527,503.814,397.714,493.714,397.714z"/>
<g>
	<path style="fill:#D5DCED;" d="M466.286,370.286H45.714c-10.099,0-18.286-8.186-18.286-18.286V77.714
		c0-10.099,8.186-18.286,18.286-18.286h420.571c10.099,0,18.286,8.186,18.286,18.286V352
		C484.571,362.099,476.385,370.286,466.286,370.286z"/>
	<path style="fill:#D5DCED;" d="M402.286,480H109.714c-5.054,0-9.143-4.094-9.143-9.143c0-5.049,4.089-9.143,9.143-9.143h292.571
		c5.054,0,9.143,4.094,9.143,9.143C411.429,475.906,407.339,480,402.286,480z"/>
</g>
<g>
	<path style="fill:#00AAF0;" d="M164.571,132.571H128c-5.049,0-9.143-4.094-9.143-9.143V86.857c0-5.049,4.094-9.143,9.143-9.143
		h36.571c5.049,0,9.143,4.094,9.143,9.143v36.571C173.714,128.479,169.621,132.571,164.571,132.571z"/>
	<path style="fill:#00AAF0;" d="M237.714,132.571h-36.571c-5.049,0-9.143-4.094-9.143-9.143V86.857c0-5.049,4.094-9.143,9.143-9.143
		h36.571c5.049,0,9.143,4.094,9.143,9.143v36.571C246.857,128.479,242.763,132.571,237.714,132.571z"/>
	<path style="fill:#00AAF0;" d="M310.857,132.571h-36.571c-5.049,0-9.143-4.094-9.143-9.143V86.857c0-5.049,4.094-9.143,9.143-9.143
		h36.571c5.049,0,9.143,4.094,9.143,9.143v36.571C320,128.479,315.906,132.571,310.857,132.571z"/>
	<path style="fill:#00AAF0;" d="M384,132.571h-36.571c-5.049,0-9.143-4.094-9.143-9.143V86.857c0-5.049,4.094-9.143,9.143-9.143H384
		c5.049,0,9.143,4.094,9.143,9.143v36.571C393.143,128.479,389.049,132.571,384,132.571z"/>
	<path style="fill:#00AAF0;" d="M91.429,132.571H54.857c-5.049,0-9.143-4.094-9.143-9.143V86.857c0-5.049,4.094-9.143,9.143-9.143
		h36.571c5.049,0,9.143,4.094,9.143,9.143v36.571C100.571,128.479,96.478,132.571,91.429,132.571z"/>
	<path style="fill:#00AAF0;" d="M457.143,132.571h-36.571c-5.049,0-9.143-4.094-9.143-9.143V86.857c0-5.049,4.094-9.143,9.143-9.143
		h36.571c5.049,0,9.143,4.094,9.143,9.143v36.571C466.286,128.479,462.192,132.571,457.143,132.571z"/>
	<path style="fill:#00AAF0;" d="M164.571,205.714H128c-5.049,0-9.143-4.094-9.143-9.143V160c0-5.049,4.094-9.143,9.143-9.143h36.571
		c5.049,0,9.143,4.094,9.143,9.143v36.571C173.714,201.622,169.621,205.714,164.571,205.714z"/>
	<path style="fill:#00AAF0;" d="M237.714,205.714h-36.571c-5.049,0-9.143-4.094-9.143-9.143V160c0-5.049,4.094-9.143,9.143-9.143
		h36.571c5.049,0,9.143,4.094,9.143,9.143v36.571C246.857,201.622,242.763,205.714,237.714,205.714z"/>
	<path style="fill:#00AAF0;" d="M310.857,205.714h-36.571c-5.049,0-9.143-4.094-9.143-9.143V160c0-5.049,4.094-9.143,9.143-9.143
		h36.571c5.049,0,9.143,4.094,9.143,9.143v36.571C320,201.622,315.906,205.714,310.857,205.714z"/>
	<path style="fill:#00AAF0;" d="M384,205.714h-36.571c-5.049,0-9.143-4.094-9.143-9.143V160c0-5.049,4.094-9.143,9.143-9.143H384
		c5.049,0,9.143,4.094,9.143,9.143v36.571C393.143,201.622,389.049,205.714,384,205.714z"/>
	<path style="fill:#00AAF0;" d="M91.429,205.714H54.857c-5.049,0-9.143-4.094-9.143-9.143V160c0-5.049,4.094-9.143,9.143-9.143
		h36.571c5.049,0,9.143,4.094,9.143,9.143v36.571C100.571,201.622,96.478,205.714,91.429,205.714z"/>
	<path style="fill:#00AAF0;" d="M457.143,205.714h-36.571c-5.049,0-9.143-4.094-9.143-9.143V160c0-5.049,4.094-9.143,9.143-9.143
		h36.571c5.049,0,9.143,4.094,9.143,9.143v36.571C466.286,201.622,462.192,205.714,457.143,205.714z"/>
	<path style="fill:#00AAF0;" d="M164.571,278.857H128c-5.049,0-9.143-4.094-9.143-9.143v-36.571c0-5.049,4.094-9.143,9.143-9.143
		h36.571c5.049,0,9.143,4.094,9.143,9.143v36.571C173.714,274.765,169.621,278.857,164.571,278.857z"/>
	<path style="fill:#00AAF0;" d="M237.714,278.857h-36.571c-5.049,0-9.143-4.094-9.143-9.143v-36.571
		c0-5.049,4.094-9.143,9.143-9.143h36.571c5.049,0,9.143,4.094,9.143,9.143v36.571C246.857,274.765,242.763,278.857,237.714,278.857
		z"/>
	<path style="fill:#00AAF0;" d="M310.857,278.857h-36.571c-5.049,0-9.143-4.094-9.143-9.143v-36.571
		c0-5.049,4.094-9.143,9.143-9.143h36.571c5.049,0,9.143,4.094,9.143,9.143v36.571C320,274.765,315.906,278.857,310.857,278.857z"/>
	<path style="fill:#00AAF0;" d="M384,278.857h-36.571c-5.049,0-9.143-4.094-9.143-9.143v-36.571c0-5.049,4.094-9.143,9.143-9.143
		H384c5.049,0,9.143,4.094,9.143,9.143v36.571C393.143,274.765,389.049,278.857,384,278.857z"/>
	<path style="fill:#00AAF0;" d="M91.429,278.857H54.857c-5.049,0-9.143-4.094-9.143-9.143v-36.571c0-5.049,4.094-9.143,9.143-9.143
		h36.571c5.049,0,9.143,4.094,9.143,9.143v36.571C100.571,274.765,96.478,278.857,91.429,278.857z"/>
	<path style="fill:#00AAF0;" d="M457.143,278.857h-36.571c-5.049,0-9.143-4.094-9.143-9.143v-36.571
		c0-5.049,4.094-9.143,9.143-9.143h36.571c5.049,0,9.143,4.094,9.143,9.143v36.571C466.286,274.765,462.192,278.857,457.143,278.857
		z"/>
	<path style="fill:#00AAF0;" d="M164.571,352H128c-5.049,0-9.143-4.094-9.143-9.143v-36.571c0-5.049,4.094-9.143,9.143-9.143h36.571
		c5.049,0,9.143,4.094,9.143,9.143v36.571C173.714,347.907,169.621,352,164.571,352z"/>
	<path style="fill:#00AAF0;" d="M237.714,352h-36.571c-5.049,0-9.143-4.094-9.143-9.143v-36.571c0-5.049,4.094-9.143,9.143-9.143
		h36.571c5.049,0,9.143,4.094,9.143,9.143v36.571C246.857,347.907,242.763,352,237.714,352z"/>
	<path style="fill:#00AAF0;" d="M310.857,352h-36.571c-5.049,0-9.143-4.094-9.143-9.143v-36.571c0-5.049,4.094-9.143,9.143-9.143
		h36.571c5.049,0,9.143,4.094,9.143,9.143v36.571C320,347.907,315.906,352,310.857,352z"/>
	<path style="fill:#00AAF0;" d="M384,352h-36.571c-5.049,0-9.143-4.094-9.143-9.143v-36.571c0-5.049,4.094-9.143,9.143-9.143H384
		c5.049,0,9.143,4.094,9.143,9.143v36.571C393.143,347.907,389.049,352,384,352z"/>
	<path style="fill:#00AAF0;" d="M91.429,352H54.857c-5.049,0-9.143-4.094-9.143-9.143v-36.571c0-5.049,4.094-9.143,9.143-9.143
		h36.571c5.049,0,9.143,4.094,9.143,9.143v36.571C100.571,347.907,96.478,352,91.429,352z"/>
	<path style="fill:#00AAF0;" d="M457.143,352h-36.571c-5.049,0-9.143-4.094-9.143-9.143v-36.571c0-5.049,4.094-9.143,9.143-9.143
		h36.571c5.049,0,9.143,4.094,9.143,9.143v36.571C466.286,347.907,462.192,352,457.143,352z"/>
</g>
<g>
	<rect x="45.714" y="96" style="fill:#0096DC;" width="54.857" height="18.286"/>
	<rect x="118.857" y="96" style="fill:#0096DC;" width="54.857" height="18.286"/>
	<rect x="192" y="96" style="fill:#0096DC;" width="54.857" height="18.286"/>
	<rect x="265.143" y="96" style="fill:#0096DC;" width="54.857" height="18.286"/>
	<rect x="338.286" y="96" style="fill:#0096DC;" width="54.857" height="18.286"/>
	<rect x="411.429" y="96" style="fill:#0096DC;" width="54.857" height="18.286"/>
	<rect x="45.714" y="169.143" style="fill:#0096DC;" width="54.857" height="18.286"/>
	<rect x="118.857" y="169.143" style="fill:#0096DC;" width="54.857" height="18.286"/>
	<rect x="192" y="169.143" style="fill:#0096DC;" width="54.857" height="18.286"/>
	<rect x="265.143" y="169.143" style="fill:#0096DC;" width="54.857" height="18.286"/>
	<rect x="338.286" y="169.143" style="fill:#0096DC;" width="54.857" height="18.286"/>
	<rect x="411.429" y="169.143" style="fill:#0096DC;" width="54.857" height="18.286"/>
	<rect x="45.714" y="242.286" style="fill:#0096DC;" width="54.857" height="18.286"/>
	<rect x="118.857" y="242.286" style="fill:#0096DC;" width="54.857" height="18.286"/>
	<rect x="192" y="242.286" style="fill:#0096DC;" width="54.857" height="18.286"/>
	<rect x="265.143" y="242.286" style="fill:#0096DC;" width="54.857" height="18.286"/>
	<rect x="338.286" y="242.286" style="fill:#0096DC;" width="54.857" height="18.286"/>
	<rect x="411.429" y="242.286" style="fill:#0096DC;" width="54.857" height="18.286"/>
	<rect x="45.714" y="315.429" style="fill:#0096DC;" width="54.857" height="18.286"/>
	<rect x="118.857" y="315.429" style="fill:#0096DC;" width="54.857" height="18.286"/>
	<rect x="192" y="315.429" style="fill:#0096DC;" width="54.857" height="18.286"/>
	<rect x="265.143" y="315.429" style="fill:#0096DC;" width="54.857" height="18.286"/>
	<rect x="338.286" y="315.429" style="fill:#0096DC;" width="54.857" height="18.286"/>
	<rect x="411.429" y="315.429" style="fill:#0096DC;" width="54.857" height="18.286"/>
</g>
</svg>